<?xml version="1.0" encoding="us-ascii" standalone="no"?><svg xmlns="http://www.w3.org/2000/svg" xmlns:xlink="http://www.w3.org/1999/xlink" contentStyleType="text/css" height="747px" preserveAspectRatio="none" style="width:670px;height:747px;background:#FFFFFF;" version="1.1" viewBox="0 0 670 747" width="670px" zoomAndPan="magnify"><defs/><g><path d="M164.97,143 L464.97,143 A12.5,12.5 0 0 1 477.47,155.5 L477.47,169.2969 L152.47,169.2969 L152.47,155.5 A12.5,12.5 0 0 1 164.97,143 " fill="#F1F1F1" style="stroke:#F1F1F1;stroke-width:1.0;"/><rect fill="none" height="98.2969" rx="12.5" ry="12.5" style="stroke:#181818;stroke-width:0.5;" width="325" x="152.47" y="143"/><line style="stroke:#181818;stroke-width:0.5;" x1="152.47" x2="477.47" y1="169.2969" y2="169.2969"/><text fill="#000000" font-family="sans-serif" font-size="14" lengthAdjust="spacing" textLength="71" x="279.47" y="160.9951">Confirmed</text><g id="confirmed.success"><rect fill="#F1F1F1" height="50" rx="12.5" ry="12.5" style="stroke:#181818;stroke-width:0.5;" width="79" x="164.47" y="181.2969"/><line style="stroke:#181818;stroke-width:0.5;" x1="164.47" x2="243.47" y1="207.5938" y2="207.5938"/><text fill="#000000" font-family="sans-serif" font-size="14" lengthAdjust="spacing" textLength="59" x="174.47" y="199.292">Success</text></g><g id="confirmed.partialSuccess"><rect fill="#F1F1F1" height="50" rx="12.5" ry="12.5" style="stroke:#181818;stroke-width:0.5;" width="124" x="260.97" y="181.2969"/><line style="stroke:#181818;stroke-width:0.5;" x1="260.97" x2="384.97" y1="207.5938" y2="207.5938"/><text fill="#000000" font-family="sans-serif" font-size="14" lengthAdjust="spacing" textLength="104" x="270.97" y="199.292">Partial Success</text></g><g id="confirmed.failure"><rect fill="#F1F1F1" height="50" rx="12.5" ry="12.5" style="stroke:#181818;stroke-width:0.5;" width="65" x="403.47" y="181.2969"/><line style="stroke:#181818;stroke-width:0.5;" x1="403.47" x2="468.47" y1="207.5938" y2="207.5938"/><text fill="#000000" font-family="sans-serif" font-size="14" lengthAdjust="spacing" textLength="45" x="413.47" y="199.292">Failure</text></g><g id="pending"><rect fill="#F1F1F1" height="50" rx="12.5" ry="12.5" style="stroke:#181818;stroke-width:0.5;" width="77" x="541.47" y="382.44"/><line style="stroke:#181818;stroke-width:0.5;" x1="541.47" x2="618.47" y1="408.7369" y2="408.7369"/><text fill="#000000" font-family="sans-serif" font-size="14" lengthAdjust="spacing" textLength="57" x="551.47" y="400.4351">Pending</text></g><path d="M128.97,358.29 L428.97,358.29 A12.5,12.5 0 0 1 441.47,370.79 L441.47,384.5869 L116.47,384.5869 L116.47,370.79 A12.5,12.5 0 0 1 128.97,358.29 " fill="#F1F1F1" style="stroke:#F1F1F1;stroke-width:1.0;"/><rect fill="none" height="98.2969" rx="12.5" ry="12.5" style="stroke:#181818;stroke-width:0.5;" width="325" x="116.47" y="358.29"/><line style="stroke:#181818;stroke-width:0.5;" x1="116.47" x2="441.47" y1="384.5869" y2="384.5869"/><text fill="#000000" font-family="sans-serif" font-size="14" lengthAdjust="spacing" textLength="31" x="263.47" y="376.2851">Final</text><g id="final.successF"><rect fill="#F1F1F1" height="50" rx="12.5" ry="12.5" style="stroke:#181818;stroke-width:0.5;" width="79" x="128.47" y="396.5869"/><line style="stroke:#181818;stroke-width:0.5;" x1="128.47" x2="207.47" y1="422.8838" y2="422.8838"/><text fill="#000000" font-family="sans-serif" font-size="14" lengthAdjust="spacing" textLength="59" x="138.47" y="414.582">Success</text></g><g id="final.partialSuccessF"><rect fill="#F1F1F1" height="50" rx="12.5" ry="12.5" style="stroke:#181818;stroke-width:0.5;" width="124" x="224.97" y="396.5869"/><line style="stroke:#181818;stroke-width:0.5;" x1="224.97" x2="348.97" y1="422.8838" y2="422.8838"/><text fill="#000000" font-family="sans-serif" font-size="14" lengthAdjust="spacing" textLength="104" x="234.97" y="414.582">Partial Success</text></g><g id="final.failureF"><rect fill="#F1F1F1" height="50" rx="12.5" ry="12.5" style="stroke:#181818;stroke-width:0.5;" width="65" x="367.47" y="396.5869"/><line style="stroke:#181818;stroke-width:0.5;" x1="367.47" x2="432.47" y1="422.8838" y2="422.8838"/><text fill="#000000" font-family="sans-serif" font-size="14" lengthAdjust="spacing" textLength="45" x="377.47" y="414.582">Failure</text></g><g id="rejected"><rect fill="#F1F1F1" height="50" rx="12.5" ry="12.5" style="stroke:#181818;stroke-width:0.5;" width="82" x="48.97" y="691.59"/><line style="stroke:#181818;stroke-width:0.5;" x1="48.97" x2="130.97" y1="717.8869" y2="717.8869"/><text fill="#000000" font-family="sans-serif" font-size="14" lengthAdjust="spacing" textLength="62" x="58.97" y="709.5851">Rejected</text></g><ellipse cx="496.97" cy="16" fill="#222222" rx="10" ry="10" style="stroke:#222222;stroke-width:1.0;"/><!--link *start* to pending--><g id="link_*start*_pending"><path d="M499.32,26.14 C504.62,46.89 517.84,99.1 527.97,143 C543.14,208.7 547.09,225.11 559.97,291.29 C566.06,322.56 571.2259,352.8696 575.0659,376.2096 " fill="none" id="*start*-to-pending" style="stroke:#181818;stroke-width:1.0;"/><polygon fill="#181818" points="576.04,382.13,578.5259,372.6,575.2283,377.1963,570.632,373.8988,576.04,382.13" style="stroke:#181818;stroke-width:1.0;"/><text fill="#000000" font-family="sans-serif" font-size="13" lengthAdjust="spacing" textLength="112" x="550.94" y="196.7069">spend | watch_for</text></g><!--link *start* to confirmed--><g id="link_*start*_confirmed"><path d="M490.06,23.61 C469.87,42.93 413.9353,96.4521 369.7353,138.7421 " fill="none" id="*start*-to-confirmed" style="stroke:#181818;stroke-width:1.0;"/><polygon fill="#181818" points="365.4,142.89,374.6682,139.5583,369.0127,139.4334,369.1376,133.7779,365.4,142.89" style="stroke:#181818;stroke-width:1.0;"/><text fill="#000000" font-family="sans-serif" font-size="13" lengthAdjust="spacing" textLength="34" x="433.91" y="89.0669">apply</text></g><!--link pending to confirmed--><g id="link_pending_confirmed"><path d="M541.09,384.96 C494.48,359.05 421.19,317.79 409.97,308.29 C387.12,288.96 369.1922,268.3981 352.4022,246.4181 " fill="none" id="pending-to-confirmed" style="stroke:#181818;stroke-width:1.0;"/><polygon fill="#181818" points="348.76,241.65,351.0446,251.2302,351.7952,245.6234,357.402,246.3739,348.76,241.65" style="stroke:#181818;stroke-width:1.0;"/><text fill="#000000" font-family="sans-serif" font-size="13" lengthAdjust="spacing" textLength="34" x="410.97" y="304.3569">apply</text></g><!--link confirmed to pending--><g id="link_confirmed_pending"><path d="M397.37,241.65 C420.61,256.57 445.43,273.72 466.97,291.29 C501.7,319.61 533.1762,353.0234 554.8862,377.4734 " fill="none" id="confirmed-to-pending" style="stroke:#181818;stroke-width:1.0;"/><polygon fill="#181818" points="558.87,381.96,555.8854,372.5743,555.5502,378.2212,549.9033,377.886,558.87,381.96" style="stroke:#181818;stroke-width:1.0;"/><text fill="#000000" font-family="sans-serif" font-size="13" lengthAdjust="spacing" textLength="49" x="484.64" y="304.3569">rollback</text></g><!--link confirmed to final--><g id="link_confirmed_final"><path d="M280.73,241.65 C271.86,256.84 263.52,274.13 258.97,291.29 C253.25,312.87 254.6907,331.3377 259.8407,352.0277 " fill="none" id="confirmed-to-final" style="stroke:#181818;stroke-width:1.0;"/><polygon fill="#181818" points="261.29,357.85,262.9977,348.1503,260.0823,352.998,255.2346,350.0827,261.29,357.85" style="stroke:#181818;stroke-width:1.0;"/><text fill="#000000" font-family="sans-serif" font-size="13" lengthAdjust="spacing" textLength="44" x="259.97" y="304.3569">finalize</text></g><!--link pending to rejected--><g id="link_pending_rejected"><path d="M541.11,432.8 C449.44,490.26 225.5936,630.573 133.9236,688.043 " fill="none" id="pending-to-rejected" style="stroke:#181818;stroke-width:1.0;"/><polygon fill="#181818" points="128.84,691.23,138.5901,689.8385,133.0763,688.5742,134.3407,683.0604,128.84,691.23" style="stroke:#181818;stroke-width:1.0;"/><text fill="#000000" font-family="sans-serif" font-size="13" lengthAdjust="spacing" textLength="46" x="315.58" y="586.6569">discard</text></g><!--link confirmed to rejected--><g id="link_confirmed_rejected"><path d="M194.96,241.64 C145.68,268.25 93.75,306.53 65.97,358.29 C6,470.04 54.7108,624.9743 77.8408,685.5843 " fill="none" id="confirmed-to-rejected" style="stroke:#181818;stroke-width:1.0;"/><polygon fill="#181818" points="79.98,691.19,80.5083,681.3553,78.1973,686.5186,73.034,684.2076,79.98,691.19" style="stroke:#181818;stroke-width:1.0;"/><text fill="#000000" font-family="sans-serif" font-size="13" lengthAdjust="spacing" textLength="46" x="40.5" y="519.6569">discard</text></g><!--SRC=[ZL2xQiGm4Epr5OkQWy31fNMH9k0wvCeZX8sqJZRMIKBI4Nn9_ZssvHUEYwiqEpCQPdSNQxOU0vx1iANKU0BlJDCDOjQiqnJ9m_tXi603sdfaHKoO29Ip5OSpQS08yd6S97mBW6o95wKenjvmp5XEOXkS6CrnuNdA5FppLiZc4gWtbHbByJiKyMGrs_USaB4SIrPisxp-MuSsofMtj2jlgbUk-mqb0dsIIiEXdeUXhNYwUu7z_c5Qe83OGVY1BqpguxLoOVBCrou0lJUD67zjgpFJwVaCHNxvIYjvBX2SCM-ewaLwgqyB5A0vAWnw5R1X-0C0]--></g></svg>