<?xml version="1.0" encoding="us-ascii" standalone="no"?><svg xmlns="http://www.w3.org/2000/svg" xmlns:xlink="http://www.w3.org/1999/xlink" contentStyleType="text/css" height="540px" preserveAspectRatio="none" style="width:398px;height:540px;background:#FFFFFF;" version="1.1" viewBox="0 0 398 540" width="398px" zoomAndPan="magnify"><defs/><g><ellipse cx="182.5" cy="16" fill="#222222" rx="10" ry="10" style="stroke:#222222;stroke-width:1.0;"/><g id="seed"><rect fill="#F1F1F1" height="50.6211" rx="12.5" ry="12.5" style="stroke:#181818;stroke-width:0.5;" width="100" x="132.5" y="87"/><line style="stroke:#181818;stroke-width:0.5;" x1="132.5" x2="232.5" y1="113.4883" y2="113.4883"/><text fill="#000000" font-family="sans-serif" font-size="14" lengthAdjust="spacing" textLength="80" x="142.5" y="105.5352">Zswap Seed</text><text fill="#000000" font-family="sans-serif" font-size="12" lengthAdjust="spacing" textLength="51" x="137.5" y="130.0898">32 bytes</text></g><g id="ESK"><rect fill="#F1F1F1" height="50.6211" rx="12.5" ry="12.5" style="stroke:#181818;stroke-width:0.5;" width="167" x="7" y="214.62"/><line style="stroke:#181818;stroke-width:0.5;" x1="7" x2="174" y1="241.1083" y2="241.1083"/><text fill="#000000" font-family="sans-serif" font-size="14" lengthAdjust="spacing" textLength="147" x="17" y="233.1552">Encryption Secret Key</text><text fill="#000000" font-family="sans-serif" font-size="12" lengthAdjust="spacing" textLength="131" x="12" y="257.7098">Key to decrypt outputs</text></g><g id="CSK"><rect fill="#F1F1F1" height="50.6211" rx="12.5" ry="12.5" style="stroke:#181818;stroke-width:0.5;" width="129" x="210" y="214.62"/><line style="stroke:#181818;stroke-width:0.5;" x1="210" x2="339" y1="241.1083" y2="241.1083"/><text fill="#000000" font-family="sans-serif" font-size="14" lengthAdjust="spacing" textLength="106" x="221.5" y="233.1552">Coin Secret Key</text><text fill="#000000" font-family="sans-serif" font-size="12" lengthAdjust="spacing" textLength="109" x="215" y="257.7098">Key to spend coins</text></g><g id="EPK"><rect fill="#F1F1F1" height="50.6211" rx="12.5" ry="12.5" style="stroke:#181818;stroke-width:0.5;" width="166" x="7.5" y="342.24"/><line style="stroke:#181818;stroke-width:0.5;" x1="7.5" x2="173.5" y1="368.7283" y2="368.7283"/><text fill="#000000" font-family="sans-serif" font-size="14" lengthAdjust="spacing" textLength="146" x="17.5" y="360.7752">Encryption Public Key</text><text fill="#000000" font-family="sans-serif" font-size="12" lengthAdjust="spacing" textLength="130" x="12.5" y="385.3298">Key to encrypt outputs</text></g><g id="CPK"><rect fill="#F1F1F1" height="50.6211" rx="12.5" ry="12.5" style="stroke:#181818;stroke-width:0.5;" width="134" x="208.5" y="342.24"/><line style="stroke:#181818;stroke-width:0.5;" x1="208.5" x2="342.5" y1="368.7283" y2="368.7283"/><text fill="#000000" font-family="sans-serif" font-size="14" lengthAdjust="spacing" textLength="105" x="223" y="360.7752">Coin Public Key</text><text fill="#000000" font-family="sans-serif" font-size="12" lengthAdjust="spacing" textLength="114" x="213.5" y="385.3298">Key to receive coins</text></g><g id="addr"><rect fill="#F1F1F1" height="64.7539" rx="12.5" ry="12.5" style="stroke:#181818;stroke-width:0.5;" width="239" x="63" y="469.87"/><line style="stroke:#181818;stroke-width:0.5;" x1="63" x2="302" y1="496.3583" y2="496.3583"/><text fill="#000000" font-family="sans-serif" font-size="14" lengthAdjust="spacing" textLength="56" x="154.5" y="488.4052">Address</text><text fill="#000000" font-family="sans-serif" font-size="12" lengthAdjust="spacing" textLength="219" x="68" y="512.9598">Address for sharing with other parties</text><text fill="#000000" font-family="sans-serif" font-size="12" lengthAdjust="spacing" textLength="165" x="68" y="527.0927">Concatenation of public keys</text></g><!--link *start* to seed--><g id="link_*start*_seed"><path d="M182.5,26.39 C182.5,40.37 182.5,61.12 182.5,80.88 " fill="none" id="*start*-to-seed" style="stroke:#181818;stroke-width:1.0;"/><polygon fill="#181818" points="182.5,86.88,186.5,77.88,182.5,81.88,178.5,77.88,182.5,86.88" style="stroke:#181818;stroke-width:1.0;"/></g><!--link seed to ESK--><g id="link_seed_ESK"><path d="M132.03,130.06 C114.78,138.48 97.37,150.62 87.5,167.62 C79.42,181.56 79.1675,193.8417 82.0075,208.3517 " fill="none" id="seed-to-ESK" style="stroke:#181818;stroke-width:1.0;"/><polygon fill="#181818" points="83.16,214.24,85.3568,204.6393,82.1996,209.3331,77.5057,206.1759,83.16,214.24" style="stroke:#181818;stroke-width:1.0;"/><text fill="#000000" font-family="sans-serif" font-size="13" lengthAdjust="spacing" textLength="142" x="88.5" y="181.1884">sample "midnight:esk"</text></g><!--link seed to CSK--><g id="link_seed_CSK"><path d="M209.37,137.98 C218.26,146.85 227.82,157.24 235.5,167.62 C246.24,182.15 253.3158,194.5989 260.3858,208.7989 " fill="none" id="seed-to-CSK" style="stroke:#181818;stroke-width:1.0;"/><polygon fill="#181818" points="263.06,214.17,262.6294,204.3306,260.8315,209.6941,255.468,207.8962,263.06,214.17" style="stroke:#181818;stroke-width:1.0;"/><text fill="#000000" font-family="sans-serif" font-size="13" lengthAdjust="spacing" textLength="143" x="247.5" y="181.1884">sha256 "midnight:csk"</text></g><!--link ESK to EPK--><g id="link_ESK_EPK"><path d="M90.5,265.45 C90.5,287.59 90.5,313.98 90.5,336.1 " fill="none" id="ESK-to-EPK" style="stroke:#181818;stroke-width:1.0;"/><polygon fill="#181818" points="90.5,342.1,94.5,333.1,90.5,337.1,86.5,333.1,90.5,342.1" style="stroke:#181818;stroke-width:1.0;"/><text fill="#000000" font-family="sans-serif" font-size="13" lengthAdjust="spacing" textLength="36" x="91.5" y="308.8084">ECDH</text></g><!--link CSK to CPK--><g id="link_CSK_CPK"><path d="M274.7,265.45 C274.87,287.59 275.0812,313.9802 275.2612,336.1002 " fill="none" id="CSK-to-CPK" style="stroke:#181818;stroke-width:1.0;"/><polygon fill="#181818" points="275.31,342.1,279.2366,333.0677,275.2693,337.1002,271.2369,333.1328,275.31,342.1" style="stroke:#181818;stroke-width:1.0;"/><text fill="#000000" font-family="sans-serif" font-size="13" lengthAdjust="spacing" textLength="108" x="275.5" y="308.8084">sha256 "mdn:pk"</text></g><!--link EPK to addr--><g id="link_EPK_addr"><path d="M107.59,393.2 C122.55,414.79 140.9724,441.3384 157.2024,464.7584 " fill="none" id="EPK-to-addr" style="stroke:#181818;stroke-width:1.0;"/><polygon fill="#181818" points="160.62,469.69,158.7814,460.0143,157.772,465.5804,152.206,464.571,160.62,469.69" style="stroke:#181818;stroke-width:1.0;"/><text fill="#000000" font-family="sans-serif" font-size="13" lengthAdjust="spacing" textLength="44" x="140.5" y="436.4384">Base16</text></g><!--link CPK to addr--><g id="link_CPK_addr"><path d="M258.23,393.2 C243.1,414.79 224.4744,441.3572 208.0544,464.7772 " fill="none" id="CPK-to-addr" style="stroke:#181818;stroke-width:1.0;"/><polygon fill="#181818" points="204.61,469.69,213.0519,464.617,207.4804,465.596,206.5014,460.0245,204.61,469.69" style="stroke:#181818;stroke-width:1.0;"/><text fill="#000000" font-family="sans-serif" font-size="13" lengthAdjust="spacing" textLength="44" x="237.5" y="436.4384">Base16</text></g><!--SRC=[RP0zQyCm48Pt_uh3Oo13Kvf1Gw5L3OKiXcpz61Jf4eiaaj2T4_plAyifTbelWZizZzxJVIw-ORby1a8qHN_agjfk190wXnD2URR6sKF30kbOZepCJADMJ-i9eticwSCpTK8g-VPUo5j7rbF9E15wl1ukbJ5HmAiYV5WNSgvP42jE8ttGLGNOfb5AK9I75_2uWbt7IBzGvNJi0bll4gaZCcomotp-NYg0FHZC5FYMGyjpSjtkJbQFSZtAw6PbwUs_J3d9f83EW4xKlV8dIKwI8cgq5xoNNj9ka2Z3mvvk7TZxsAyvMdU0g-K6F3SO8QZ85kdBIUzqUiAf_4E_Xp147x6ZuWS0]--></g></svg>