<svg xmlns="http://www.w3.org/2000/svg" xmlns:xlink="http://www.w3.org/1999/xlink" version="1.1" width="1680" height="1512"><g id="Browser extension wallet Component Diagram"><g id="Browser extension wallet"><rect width="1128" height="800" rx="8" ry="8" fill-opacity="0.02" fill="#000000" stroke-opacity="1" stroke-width="2" stroke="#cfd2d2" opacity="1" x="32" y="680"></rect><text font-family="IBM Plex Sans Medium, Arial, sans-serif" font-size="15" font-weight="500" fill="#0c0d0d" opacity="1" x="48" y="711.375"><tspan dy="0" x="48">Browser extension wallet</tspan></text><g id="App" opacity="1"><text font-family="Courier New, monospace" font-size="12" text-anchor="middle" fill="#595f61" x="596" y="1468.6552734375"><tspan dy="0" x="596">App</tspan></text></g></g><g id="Proof server"><rect width="352" height="248" rx="8" ry="8" fill-opacity="0.02" fill="#000000" stroke-opacity="1" stroke-width="2" stroke="#cfd2d2" opacity="1" x="1248" y="400"></rect><text font-family="IBM Plex Sans Medium, Arial, sans-serif" font-size="15" font-weight="500" fill="#0c0d0d" opacity="1" x="1264" y="431.375"><tspan dy="0" x="1264">Proof server</tspan></text><g id="App in: other context" opacity="1"><text font-family="Courier New, monospace" font-size="12" text-anchor="middle" fill="#595f61" x="1424" y="636.6552734375"><tspan dy="0" x="1424">App in: other context</tspan></text></g></g><g id="Proof server"><rect width="448" height="368" rx="8" ry="8" fill-opacity="0.02" fill="#000000" stroke-opacity="1" stroke-width="2" stroke="#cfd2d2" opacity="1" x="1200" y="344"></rect><text font-family="IBM Plex Sans Medium, Arial, sans-serif" font-size="15" font-weight="500" fill="#0c0d0d" opacity="1" x="1216" y="375.375"><tspan dy="0" x="1216">Proof server</tspan></text><g opacity="1"><text font-family="IBM Plex Sans, Arial, sans-serif" font-size="14" text-anchor="middle" fill="#595f61" x="1424" y="677.2500000000001"><tspan dy="0" x="1424">Computes ZK proofs</tspan></text></g><g id="System in: other context" opacity="1"><text font-family="Courier New, monospace" font-size="12" text-anchor="middle" fill="#595f61" x="1424" y="700.6552734375"><tspan dy="0" x="1424">System in: other context</tspan></text></g></g><g id="Indexer"><rect width="352" height="248" rx="8" ry="8" fill-opacity="0.02" fill="#000000" stroke-opacity="1" stroke-width="2" stroke="#cfd2d2" opacity="1" x="1200" y="32"></rect><text font-family="IBM Plex Sans Medium, Arial, sans-serif" font-size="15" font-weight="500" fill="#0c0d0d" opacity="1" x="1216" y="63.375"><tspan dy="0" x="1216">Indexer</tspan></text><g opacity="1"><text font-family="IBM Plex Sans, Arial, sans-serif" font-size="10" text-anchor="middle" fill="#595f61" x="1376" y="237.75"><tspan dy="0" x="1376">Collects data for efficient querying by user-facing applications; enables</tspan></text><text font-family="IBM Plex Sans, Arial, sans-serif" font-size="10" text-anchor="middle" fill="#595f61" x="1375.9999999999998" y="249.75"><tspan dy="0" x="1375.9999999999998">lightweight wallets</tspan></text></g><g id="System in: other context" opacity="1"><text font-family="Courier New, monospace" font-size="12" text-anchor="middle" fill="#595f61" x="1376" y="268.6552734375"><tspan dy="0" x="1376">System in: other context</tspan></text></g></g><g id="proves token movements with"><polyline points="208,736 208,712 208.71,698.13 210.82,684.88 216.51,666.15 221.92,654.4 232.38,637.86 240.85,627.53 255.68,613.05 266.94,604.06 285.77,591.52 306.81,580.08 329.92,569.69 354.95,560.31 381.78,551.89 410.26,544.39 440.25,537.75 471.6,531.94 504.19,526.91 572.5,519 607.95,516.02 656.22,512.97 742.5899999999999,509.85 829.8199999999999,509.03 916.14,509.95 1011.41,512.36 1208.13,518.98 1296,520" fill="none" stroke-width="1" stroke="#adb3b3" opacity="1"></polyline></g><g id="proves token movements with"><rect width="118.848" height="38.2" x="638.5775556736496" y="492.3606975373187" rx="4" ry="4" fill-opacity="0.8" fill="#e5e7e8" stroke-opacity="1" stroke-width="1" stroke="#cfd2d2" opacity="0.8"></rect><g opacity="1" fill="#434647"><text font-family="IBM Plex Sans Medium, Arial, sans-serif" font-size="14" text-anchor="middle" x="698.0015556736496" y="508.7106975373187"><tspan dy="0" x="698.0015556736496">proves token</tspan></text><text font-family="IBM Plex Sans Medium, Arial, sans-serif" font-size="14" text-anchor="middle" x="698.0015556736496" y="524.7106975373188"><tspan dy="0" x="698.0015556736496">movements with</tspan></text></g></g><g id="Proves Dust payments with"><polyline points="984,736 984.31,702.28 986.75,683.6 991.48,665.93 998.35,649.26 1007.2,633.61 1012.32,626.16 1023.85,612.02 1036.97,598.9 1044.08,592.71 1059.3,581.1 1084.3400000000001,565.5699999999999 1111.56,552.3199999999999 1140.44,541.3299999999999 1170.46,532.62 1201.0900000000001,526.19 1231.81,522.02 1262.0900000000001,520.13 1296,520" fill="none" stroke-width="1" stroke="#adb3b3" opacity="1"></polyline></g><g id="Proves Dust payments with"><rect width="106.864" height="38.2" x="1034.6148488590024" y="544.6656007574658" rx="4" ry="4" fill-opacity="0.8" fill="#e5e7e8" stroke-opacity="1" stroke-width="1" stroke="#cfd2d2" opacity="0.8"></rect><g opacity="1" fill="#434647"><text font-family="IBM Plex Sans Medium, Arial, sans-serif" font-size="14" text-anchor="middle" x="1088.0468488590027" y="561.0156007574659"><tspan dy="0" x="1088.0468488590027">Proves Dust</tspan></text><text font-family="IBM Plex Sans Medium, Arial, sans-serif" font-size="14" text-anchor="middle" x="1088.0468488590025" y="577.0156007574659"><tspan dy="0" x="1088.0468488590025">payments with</tspan></text></g></g><g id="Learns its state with help of"><polyline points="272,736 272.15,705.77 273.35,693.2 277.34000000000003,674.03 283.84000000000003,654.56 292.73,634.81 303.90999999999997,614.84 317.26,594.6800000000001 338.24,567.61 356.19,547.21 382.89,519.97 404.83,499.56 436.41,472.47 461.7,452.3 497.34000000000003,425.7 534.91,399.5 574.14,373.84 614.76,348.8 656.5,324.5 699.0799999999999,301.04 753.0699999999999,273.06 796.54,251.88 850.77,227.07999999999998 893.75,208.70999999999998 946.49,187.76 997.67,169.24 1037.12,156.32 1084.1100000000001,142.69000000000005 1119.52,133.94000000000005 1160.5900000000001,125.87 1190.5700000000002,121.84000000000003 1217.7,120.07000000000005 1248,120" fill="none" stroke-width="1" stroke="#adb3b3" opacity="1"></polyline></g><g id="Learns its state with help of"><rect width="141.40200000000002" height="38.2" x="604.8457464310783" y="294.90594947691176" rx="4" ry="4" fill-opacity="0.8" fill="#e5e7e8" stroke-opacity="1" stroke-width="1" stroke="#cfd2d2" opacity="0.8"></rect><g opacity="1" fill="#434647"><text font-family="IBM Plex Sans Medium, Arial, sans-serif" font-size="14" text-anchor="middle" x="675.5467464310783" y="311.2559494769118"><tspan dy="0" x="675.5467464310783">Learns its state with</tspan></text><text font-family="IBM Plex Sans Medium, Arial, sans-serif" font-size="14" text-anchor="middle" x="675.5467464310783" y="327.2559494769118"><tspan dy="0" x="675.5467464310783">help of</tspan></text></g></g><g id="Learns its state from"><polyline points="488,736 488,712 488.69,700.02 490.72,687.62 496.19,668.26 504.42,648.1 515.25,627.23 528.52,605.76 544.0699999999999,583.77 561.74,561.36 581.36,538.64 602.79,515.7 633.88,484.94 658.88,461.86 685.15,438.89 712.53,416.13 750.47,386.26 779.8,364.35 819.77,335.98 850.19,315.46 891.03,289.28 931.8299999999999,264.69 972.24,241.89999999999998 1011.86,221.16000000000003 1040.8200000000002,207.07999999999998 1078.15,190.45 1104.97,179.73000000000002 1138.85,167.95 1162.6399999999999,161.12 1184.87,156.12 1205.38,153.05 1218.01,152.12 1248,152" fill="none" stroke-width="1" stroke="#adb3b3" opacity="1"></polyline></g><g id="Learns its state from"><rect width="109.97200000000001" height="38.2" x="738.052906380888" y="335.8532580929249" rx="4" ry="4" fill-opacity="0.8" fill="#e5e7e8" stroke-opacity="1" stroke-width="1" stroke="#cfd2d2" opacity="0.8"></rect><g opacity="1" fill="#434647"><text font-family="IBM Plex Sans Medium, Arial, sans-serif" font-size="14" text-anchor="middle" x="793.038906380888" y="352.2032580929249"><tspan dy="0" x="793.038906380888">Learns its state</tspan></text><text font-family="IBM Plex Sans Medium, Arial, sans-serif" font-size="14" text-anchor="middle" x="793.038906380888" y="368.2032580929249"><tspan dy="0" x="793.038906380888">from</tspan></text></g></g><g id="Learns its state with help of"><polyline points="920,736 920.51,699.22 922.01,684.98 926.02,661.12 929.8199999999999,643.73 937.09,615.74 953.06,565.02 973.29,510.87 997.15,455.23 1024,400 1041.27,367.87 1053.19,347.12 1077.8,307.79 1103.17,272.18 1116.04,256.07 1128.97,241.26999999999998 1141.94,227.88 1154.88,216.04000000000002 1167.78,205.86 1180.5700000000002,197.48000000000002 1193.23,191 1199.49,188.51999999999998 1211.87,185.14999999999998 1217.97,184.29000000000002 1248,184" fill="none" stroke-width="1" stroke="#adb3b3" opacity="1"></polyline></g><g id="Learns its state with help of"><rect width="141.40200000000002" height="38.2" x="947.5567603433095" y="392.7116907351587" rx="4" ry="4" fill-opacity="0.8" fill="#e5e7e8" stroke-opacity="1" stroke-width="1" stroke="#cfd2d2" opacity="0.8"></rect><g opacity="1" fill="#434647"><text font-family="IBM Plex Sans Medium, Arial, sans-serif" font-size="14" text-anchor="middle" x="1018.2577603433095" y="409.0616907351587"><tspan dy="0" x="1018.2577603433095">Learns its state with</tspan></text><text font-family="IBM Plex Sans Medium, Arial, sans-serif" font-size="14" text-anchor="middle" x="1018.2577603433095" y="425.0616907351587"><tspan dy="0" x="1018.2577603433095">help of</tspan></text></g></g><g id="Exchanges state and requests with"><polyline points="488,1288 488,1136" fill="none" stroke-width="1" stroke="#adb3b3" opacity="1"></polyline></g><g id="Exchanges state and requests with"><rect width="127.08000000000001" height="38.2" x="424.46" y="1192.9" rx="4" ry="4" fill-opacity="0.8" fill="#e5e7e8" stroke-opacity="1" stroke-width="1" stroke="#cfd2d2" opacity="0.8"></rect><g opacity="1" fill="#434647"><text font-family="IBM Plex Sans Medium, Arial, sans-serif" font-size="14" text-anchor="middle" x="488" y="1209.25"><tspan dy="0" x="488">Exchanges state</tspan></text><text font-family="IBM Plex Sans Medium, Arial, sans-serif" font-size="14" text-anchor="middle" x="488" y="1225.25"><tspan dy="0" x="488">and requests with</tspan></text></g></g><g id="Manages unshielded tokens (and Night) with"><polyline points="488,1008 488,864" fill="none" stroke-width="1" stroke="#adb3b3" opacity="1"></polyline></g><g id="Manages unshielded tokens (and Night) with"><rect width="129.85199999999998" height="54.2" x="423.074" y="908.9" rx="4" ry="4" fill-opacity="0.8" fill="#e5e7e8" stroke-opacity="1" stroke-width="1" stroke="#cfd2d2" opacity="0.8"></rect><g opacity="1" fill="#434647"><text font-family="IBM Plex Sans Medium, Arial, sans-serif" font-size="14" text-anchor="middle" x="488" y="925.2500000000001"><tspan dy="0" x="488">Manages</tspan></text><text font-family="IBM Plex Sans Medium, Arial, sans-serif" font-size="14" text-anchor="middle" x="488" y="941.2500000000001"><tspan dy="0" x="488">unshielded tokens</tspan></text><text font-family="IBM Plex Sans Medium, Arial, sans-serif" font-size="14" text-anchor="middle" x="488" y="957.2500000000001"><tspan dy="0" x="488">(and Night) with</tspan></text></g></g><g id="Manages shielded tokens with"><polyline points="424,1008 424,984 423.09,971.03 420.46,960.53 416.29,952.23 410.75,945.9 404.02,941.29 396.25,938.1600000000001 387.63,936.25 368.5,935.14 337.65999999999997,936.55 317.68,936.6700000000001 308.37,935.75 299.75,933.8399999999999 291.98,930.71 285.25,926.1 279.71000000000004,919.77 275.53999999999996,911.47 272.90999999999997,900.97 272,888 272,864" fill="none" stroke-width="1" stroke="#adb3b3" opacity="1"></polyline></g><g id="Manages shielded tokens with"><rect width="127.276" height="38.2" x="284.3605430544968" y="916.9773234206601" rx="4" ry="4" fill-opacity="0.8" fill="#e5e7e8" stroke-opacity="1" stroke-width="1" stroke="#cfd2d2" opacity="0.8"></rect><g opacity="1" fill="#434647"><text font-family="IBM Plex Sans Medium, Arial, sans-serif" font-size="14" text-anchor="middle" x="347.99854305449685" y="933.3273234206603"><tspan dy="0" x="347.99854305449685">Manages shielded</tspan></text><text font-family="IBM Plex Sans Medium, Arial, sans-serif" font-size="14" text-anchor="middle" x="347.99854305449685" y="949.3273234206603"><tspan dy="0" x="347.99854305449685">tokens with</tspan></text></g></g><g id="Manages Dust with"><polyline points="552,1008 552,984 552.53,976.52 554.1,969.73 556.66,963.6 560.17,958.1 564.58,953.2 569.85,948.88 575.9300000000001,945.1 590.37,939.05 607.54,934.8199999999999 617.04,933.3199999999999 637.64,931.38 660.1,930.6800000000001 684.06,930.98 722.03,932.78 826.8399999999999,939.96 875.9,941.3199999999999 898.36,940.62 918.96,938.6800000000001 937.37,935.28 945.63,932.95 960.07,926.9 966.15,923.12 971.42,918.8 975.83,913.9 979.34,908.4 981.9,902.27 983.47,895.48 984,888 984,864" fill="none" stroke-width="1" stroke="#adb3b3" opacity="1"></polyline></g><g id="Manages Dust with"><rect width="133.548" height="22.2" x="701.2295349760969" y="924.8294130438734" rx="4" ry="4" fill-opacity="0.8" fill="#e5e7e8" stroke-opacity="1" stroke-width="1" stroke="#cfd2d2" opacity="0.8"></rect><g opacity="1" fill="#434647"><text font-family="IBM Plex Sans Medium, Arial, sans-serif" font-size="14" text-anchor="middle" x="768.003534976097" y="941.1794130438735"><tspan dy="0" x="768.003534976097">Manages Dust with</tspan></text></g></g><g id="Learns Night UTXOs from"><polyline points="856,800 616,800" fill="none" stroke-width="1" stroke="#adb3b3" opacity="1"></polyline></g><g id="Learns Night UTXOs from"><rect width="139.596" height="38.2" x="666.202" y="780.9" rx="4" ry="4" fill-opacity="0.8" fill="#e5e7e8" stroke-opacity="1" stroke-width="1" stroke="#cfd2d2" opacity="0.8"></rect><g opacity="1" fill="#434647"><text font-family="IBM Plex Sans Medium, Arial, sans-serif" font-size="14" text-anchor="middle" x="736" y="797.2500000000001"><tspan dy="0" x="736">Learns Night UTXOs</tspan></text><text font-family="IBM Plex Sans Medium, Arial, sans-serif" font-size="14" text-anchor="middle" x="736" y="813.2500000000001"><tspan dy="0" x="736">from</tspan></text></g></g><a href="https://app.icepanel.io/landscapes/yERCUolKk91aYF1pzsql/versions/latest/model/objects?object=hyjurnfxqh9&amp;focus=hyjurnfxqh9" id="Wallet SDK - Facade" target="_blank"><rect width="256" height="128" rx="8" ry="8" fill-opacity="0.8" fill="#f5f6f6" stroke-opacity="1" stroke-width="1" stroke="#adb3b3" opacity="1" x="360" y="1008"></rect><text font-family="IBM Plex Sans Medium, Arial, sans-serif" font-size="24" font-weight="500" text-anchor="middle" fill="#0c0d0d" opacity="1" x="488" y="1077"><tspan dy="0" x="488">Wallet SDK - Facade</tspan></text><g id="Component" opacity="1"><text font-family="Courier New, monospace" font-size="12" text-anchor="middle" fill="#595f61" x="488" y="1124.6552734375"><tspan dy="0" x="488">Component</tspan></text></g></a><a href="https://app.icepanel.io/landscapes/yERCUolKk91aYF1pzsql/versions/latest/model/objects?object=1b5euxd6q8n&amp;focus=1b5euxd6q8n" id="Wallet frontend" target="_blank"><rect width="256" height="128" rx="8" ry="8" fill-opacity="0.8" fill="#f5f6f6" stroke-opacity="1" stroke-width="1" stroke="#adb3b3" opacity="1" x="360" y="1288"></rect><text font-family="IBM Plex Sans Medium, Arial, sans-serif" font-size="24" font-weight="500" text-anchor="middle" fill="#0c0d0d" opacity="1" x="488.00000000000006" y="1357"><tspan dy="0" x="488.00000000000006">Wallet frontend</tspan></text><g id="Component" opacity="1"><text font-family="Courier New, monospace" font-size="12" text-anchor="middle" fill="#595f61" x="488" y="1404.6552734375"><tspan dy="0" x="488">Component</tspan></text></g></a><a href="https://app.icepanel.io/landscapes/yERCUolKk91aYF1pzsql/versions/latest/model/objects?object=wbd467n7bl&amp;focus=wbd467n7bl" id="API server" target="_blank"><rect width="256" height="128" rx="8" ry="8" fill-opacity="0.8" fill="#f5f6f6" stroke-opacity="1" stroke-width="1" stroke="#adb3b3" opacity="1" x="1296" y="456"></rect><text font-family="IBM Plex Sans Medium, Arial, sans-serif" font-size="24" font-weight="500" text-anchor="middle" fill="#0c0d0d" opacity="1" x="1424" y="525"><tspan dy="0" x="1424">API server</tspan></text><g id="Component" opacity="1"><text font-family="Courier New, monospace" font-size="12" text-anchor="middle" fill="#595f61" x="1424" y="572.6552734375"><tspan dy="0" x="1424">Component</tspan></text></g></a><a href="https://app.icepanel.io/landscapes/yERCUolKk91aYF1pzsql/versions/latest/model/objects?object=sgc9w5jbjv&amp;focus=sgc9w5jbjv" id="Wallet SDK - Shielded" target="_blank"><rect width="256" height="128" rx="8" ry="8" fill-opacity="0.8" fill="#f5f6f6" stroke-opacity="1" stroke-width="1" stroke="#adb3b3" opacity="1" x="80" y="736"></rect><text font-family="IBM Plex Sans Medium, Arial, sans-serif" font-size="24" font-weight="500" text-anchor="middle" fill="#0c0d0d" opacity="1" x="208" y="805.0000000000001"><tspan dy="0" x="208">Wallet SDK - Shielded</tspan></text><g id="Component" opacity="1"><text font-family="Courier New, monospace" font-size="12" text-anchor="middle" fill="#595f61" x="208" y="852.6552734375"><tspan dy="0" x="208">Component</tspan></text></g></a><a href="https://app.icepanel.io/landscapes/yERCUolKk91aYF1pzsql/versions/latest/model/objects?object=j7g9g6l7osm&amp;focus=j7g9g6l7osm" id="Wallet SDK - Unshielded" target="_blank"><rect width="256" height="128" rx="8" ry="8" fill-opacity="0.8" fill="#f5f6f6" stroke-opacity="1" stroke-width="1" stroke="#adb3b3" opacity="1" x="360" y="736"></rect><text font-family="IBM Plex Sans Medium, Arial, sans-serif" font-size="24" font-weight="500" text-anchor="middle" fill="#0c0d0d" opacity="1" x="488" y="792.0000000000001"><tspan dy="0" x="488">Wallet SDK -</tspan></text><text font-family="IBM Plex Sans Medium, Arial, sans-serif" font-size="24" font-weight="500" text-anchor="middle" fill="#0c0d0d" opacity="1" x="488" y="818.0000000000001"><tspan dy="0" x="488">Unshielded</tspan></text><g id="Component" opacity="1"><text font-family="Courier New, monospace" font-size="12" text-anchor="middle" fill="#595f61" x="488" y="852.6552734375"><tspan dy="0" x="488">Component</tspan></text></g></a><a href="https://app.icepanel.io/landscapes/yERCUolKk91aYF1pzsql/versions/latest/model/objects?object=srw3gwh3ma&amp;focus=srw3gwh3ma" id="Wallet SDK - Dust" target="_blank"><rect width="256" height="128" rx="8" ry="8" fill-opacity="0.8" fill="#f5f6f6" stroke-opacity="1" stroke-width="1" stroke="#adb3b3" opacity="1" x="856" y="736"></rect><text font-family="IBM Plex Sans Medium, Arial, sans-serif" font-size="24" font-weight="500" text-anchor="middle" fill="#0c0d0d" opacity="1" x="983.9999999999999" y="805.0000000000001"><tspan dy="0" x="983.9999999999999">Wallet SDK - Dust</tspan></text><g id="Component" opacity="1"><text font-family="Courier New, monospace" font-size="12" text-anchor="middle" fill="#595f61" x="984" y="852.6552734375"><tspan dy="0" x="984">Component</tspan></text></g></a><a href="https://app.icepanel.io/landscapes/yERCUolKk91aYF1pzsql/versions/latest/model/objects?object=04unafxnuq3t&amp;focus=04unafxnuq3t" id="Indexer API" target="_blank"><rect width="256" height="128" rx="8" ry="8" fill-opacity="0.8" fill="#f5f6f6" stroke-opacity="1" stroke-width="1" stroke="#adb3b3" opacity="1" x="1248" y="88"></rect><text font-family="IBM Plex Sans Medium, Arial, sans-serif" font-size="24" font-weight="500" text-anchor="middle" fill="#0c0d0d" opacity="1" x="1376.0000000000002" y="139"><tspan dy="0" x="1376.0000000000002">Indexer API</tspan></text><g opacity="1"><text font-family="IBM Plex Sans, Arial, sans-serif" font-size="14" text-anchor="middle" fill="#595f61" x="1375.9999999999998" y="173.24999999999997"><tspan dy="0" x="1375.9999999999998">API server</tspan></text></g><g id="App" opacity="1"><text font-family="Courier New, monospace" font-size="12" text-anchor="middle" fill="#595f61" x="1376" y="204.6552734375"><tspan dy="0" x="1376">App</tspan></text></g></a><g id="proves token movements with"><polygon points="1287.6269503878912,447.537864719631 1279.6269503878912,463.537864719631 1295.6269503878912,463.537864719631 1287.6269503878912,447.537864719631" fill="#adb3b3" opacity="1" transform="matrix(-0.011607275361060364,0.9999326333102108,-0.9999326333102108,-0.011607275361060364,1758.453556150604,-762.3455119922585)"></polygon><circle r="4" fill="#adb3b3" opacity="1" cx="208" cy="736"></circle></g><g id="Proves Dust payments with"><polygon points="1288.1225004116666,448.15358111911115 1280.1225004116666,464.15358111911115 1296.1225004116666,464.15358111911115 1288.1225004116666,448.15358111911115" fill="#adb3b3" opacity="1" transform="matrix(0.0038336492096778143,0.9999926515398686,-0.9999926515398686,0.0038336492096778143,1739.2120780747164,-769.8310983168997)"></polygon><circle r="4" fill="#adb3b3" opacity="1" cx="984" cy="736"></circle></g><g id="Learns its state with help of"><polygon points="1240.0738631497065,48.09249438865962 1232.0738631497065,64.09249438865962 1248.0738631497065,64.09249438865962 1240.0738631497065,48.09249438865962" fill="#adb3b3" opacity="1" transform="matrix(0.002310224858083656,0.9999973314269919,-0.9999973314269919,0.002310224858083656,1293.227516585819,-1120.181658398091)"></polygon><circle r="4" fill="#adb3b3" opacity="1" cx="272" cy="736"></circle></g><g id="Learns its state from"><polygon points="1240.1278495301244,80.16030823752773 1232.1278495301244,96.16030823752773 1248.1278495301244,96.16030823752773 1240.1278495301244,80.16030823752773" fill="#adb3b3" opacity="1" transform="matrix(0.004001301746289696,0.9999919947601257,-0.9999919947601257,0.004001301746289696,1323.1975408050844,-1088.4386675905478)"></polygon><circle r="4" fill="#adb3b3" opacity="1" cx="488" cy="736"></circle></g><g id="Learns its state with help of"><polygon points="1240.307890884804,112.38775439671579 1232.307890884804,128.3877543967158 1248.307890884804,128.3877543967158 1240.307890884804,112.38775439671579" fill="#adb3b3" opacity="1" transform="matrix(0.009656559392594436,0.9999533743433727,-0.9999533743433727,0.009656559392594436,1348.4054074304377,-1057.3353397403037)"></polygon><circle r="4" fill="#adb3b3" opacity="1" cx="920" cy="736"></circle></g><g id="Exchanges state and requests with"><polygon points="488,1136 480,1152 496,1152 488,1136" fill="#adb3b3" opacity="1" transform="matrix(1,0,0,1,0,0)"></polygon><polygon points="424,1208 416,1224 432,1224 424,1208" fill="#adb3b3" opacity="1" transform="matrix(-1,1.2246467991473532e-16,-1.2246467991473532e-16,-1,912.0000000000002,2496)"></polygon></g><g id="Manages unshielded tokens (and Night) with"><polygon points="488,864 480,880 496,880 488,864" fill="#adb3b3" opacity="1" transform="matrix(1,0,0,1,0,0)"></polygon><circle r="4" fill="#adb3b3" opacity="1" cx="488" cy="1008"></circle></g><g id="Manages shielded tokens with"><polygon points="272,864 264,880 280,880 272,864" fill="#adb3b3" opacity="1" transform="matrix(1,0,0,1,0,0)"></polygon><circle r="4" fill="#adb3b3" opacity="1" cx="424" cy="1008"></circle></g><g id="Manages Dust with"><polygon points="984,864 976,880 992,880 984,864" fill="#adb3b3" opacity="1" transform="matrix(1,0,0,1,0,0)"></polygon><circle r="4" fill="#adb3b3" opacity="1" cx="552" cy="1008"></circle></g><g id="Learns Night UTXOs from"><polygon points="560,792 552,808 568,808 560,792" fill="#adb3b3" opacity="1" transform="matrix(-1.8369701987210297e-16,-1,1,-1.8369701987210297e-16,-175.9999999999999,1360)"></polygon><circle r="4" fill="#adb3b3" opacity="1" cx="856" cy="800"></circle></g></g></svg>